<svg width="18" height="25" viewBox="0 0 18 25" fill="none" xmlns="http://www.w3.org/2000/svg">
<path fill-rule="evenodd" clip-rule="evenodd" d="M9 0C4.01737 0.0546978 0 4.10546 0 9.09389C0 9.11968 0 9.14625 0 9.17203C0 14.019 8.0574 24.2733 8.40052 24.707C8.54121 24.8859 8.75693 25 9 25C9.24307 25 9.45879 24.8859 9.59792 24.7085C9.9426 24.2733 18 14.019 18 9.16813C18 9.14625 18 9.12046 18 9.09389C18 4.10468 13.9818 0.0546978 9.00469 0H9ZM9 22.9488C6.46687 19.6162 1.53973 12.4531 1.53973 9.16813C1.53895 9.12906 1.53817 9.08217 1.53817 9.03607C1.53817 4.91577 4.87868 1.57608 9 1.57608C13.1213 1.57608 16.4618 4.91577 16.4618 9.03607C16.4618 9.08217 16.4611 9.12906 16.4603 9.17516C16.4603 12.4516 11.5323 19.6131 8.99922 22.9473L9 22.9488ZM9 5.21113C8.97655 5.21035 8.9492 5.21035 8.92184 5.21035C6.63413 5.21035 4.77942 7.06461 4.77942 9.35175C4.77942 11.6389 6.63413 13.4932 8.92184 13.4932C11.2096 13.4932 13.0635 11.6397 13.0643 9.35254C13.0643 9.3416 13.0643 9.32831 13.0643 9.31503C13.0643 7.06226 11.2502 5.23223 9.00234 5.20723L9 5.21113ZM9 11.9241C8.98593 11.9241 8.96874 11.9249 8.95154 11.9249C7.52983 11.9249 6.37777 10.7731 6.37777 9.35175C6.37777 7.93039 7.52983 6.77861 8.95154 6.77861C10.3733 6.77861 11.5253 7.93039 11.5253 9.35175C11.5253 9.35253 11.5253 9.35253 11.5253 9.35332C11.5253 9.358 11.5253 9.36426 11.5253 9.36973C11.5253 10.7692 10.3975 11.9061 9.00156 11.921L9 11.9241Z" fill="white"/>
</svg>
