<svg width="27" height="16" viewBox="0 0 27 16" fill="none" xmlns="http://www.w3.org/2000/svg">
<path d="M22.4052 9.17486C21.9686 8.61486 22.0935 8.36572 22.4052 7.86514C22.4108 7.85943 26.0143 2.80114 26.3855 1.08571L26.3878 1.08457C26.5723 0.459428 26.3878 0 25.4956 0H22.5435C21.792 0 21.4455 0.394286 21.2599 0.835429C21.2599 0.835429 19.7568 4.49029 17.6305 6.85943C16.9442 7.544 16.627 7.76343 16.2523 7.76343C16.0678 7.76343 15.7809 7.544 15.7809 6.91886V1.08457C15.7809 0.334857 15.5705 0 14.9484 0H10.3065C9.83509 0 9.55496 0.349714 9.55496 0.675429C9.55496 1.38629 10.6181 1.54971 10.7284 3.54971V7.88914C10.7284 8.84 10.5585 9.01486 10.1816 9.01486C9.17807 9.01486 6.74236 5.34514 5.29893 1.14514C5.00755 0.330286 4.72291 0.00114277 3.96576 0.00114277H1.01254C0.169881 0.00114277 0 0.395428 0 0.836571C0 1.616 1.00353 5.49143 4.66666 10.6114C7.108 14.1063 10.5461 16 13.6737 16C15.5537 16 15.7832 15.5794 15.7832 14.856C15.7832 11.5166 15.6133 11.2011 16.5549 11.2011C16.9915 11.2011 17.743 11.4206 19.4981 13.1063C21.504 15.1051 21.8336 16 22.9564 16H25.9085C26.7501 16 27.1764 15.5794 26.9312 14.7497C26.3698 13.0046 22.5762 9.41486 22.4052 9.17486Z" fill="white"/>
</svg>
