<svg width="25" height="18" viewBox="0 0 25 18" fill="none" xmlns="http://www.w3.org/2000/svg">
<path d="M25 1.89474C24.0801 2.49216 23.0917 2.73645 21.875 2.8421C23.1131 2.28391 23.9264 1.3934 23.9583 0C23.3182 0.853041 22.2207 1.23118 20.8333 1.89474C20.1168 0.55178 18.7837 0 17.7083 0C14.4759 0 12.1795 2.03447 12.5 4.73684C12.1795 4.90013 12.2248 5.24695 12.5 5.68421C8.04959 5.39001 4.27026 3.58097 2.08333 0.947368C1.29907 1.5028 1.04609 2.28339 1.04167 2.8421C1.04609 4.69274 1.95156 6.08364 3.125 6.63158C2.48706 6.8749 1.69619 6.6705 1.04167 6.63158C1.00425 6.34908 1.00425 6.36811 1.04167 6.63158C1.00425 8.58894 2.77226 10.4255 5.20833 10.4211C4.68822 10.9468 4.23505 11.0025 4.16667 11.3684C3.43676 11.0025 3.11547 10.974 3.125 11.3684C3.45497 12.7261 5.34911 14.0401 7.29167 14.2105C5.83817 15.2955 3.62661 16.0219 1.04167 16.1053C0.80952 16.0219 0.401268 16.0004 0 16.1053C2.26982 17.2477 4.96586 18 8.33333 18C17.2964 18 22.4555 11.0757 22.9167 4.73684C22.4504 4.67786 22.4555 4.87383 22.9167 4.73684C23.4428 3.8423 24.3124 3.04199 25 1.89474Z" fill="white"/>
</svg>
