<svg xmlns="http://www.w3.org/2000/svg" version="1.1" xmlns:xlink="http://www.w3.org/1999/xlink" viewBox="0 0 200 200"><rect width="200" height="200" fill="url('#gradient')"></rect><defs><linearGradient id="gradient" gradientTransform="rotate(45 0.5 0.5)"><stop offset="0%" stop-color="#000000"></stop><stop offset="100%" stop-color="#484645"></stop></linearGradient></defs><g><g fill="#ffffff" transform="matrix(2.9927330173775673,0,0,2.9927330173775673,24.95409378157973,122.14856731842667)" stroke="#ffffff" stroke-width="0"><path d="M12.24-14.22L12.24-11.57L7.97-11.57L7.97 0L4.54 0L4.54-11.57L0.35-11.57L0.35-14.22L12.24-14.22ZM17.77 0.20L17.77 0.20Q15.34 0.20 13.84-1.25Q12.33-2.71 12.33-5.03L12.33-5.03L12.33-5.30Q12.33-6.92 12.93-8.16Q13.54-9.40 14.69-10.08Q15.84-10.76 17.42-10.76L17.42-10.76Q19.65-10.76 20.94-9.38Q22.23-8.00 22.23-5.53L22.23-5.53L22.23-4.25L15.68-4.25Q15.86-3.36 16.46-2.85Q17.05-2.34 18.00-2.34L18.00-2.34Q19.56-2.34 20.44-3.44L20.44-3.44L21.94-1.66Q21.33-0.81 20.20-0.31Q19.07 0.20 17.77 0.20ZM17.40-8.22L17.40-8.22Q15.96-8.22 15.68-6.31L15.68-6.31L19.00-6.31L19.00-6.56Q19.02-7.35 18.60-7.79Q18.18-8.22 17.40-8.22ZM27.02-15L27.02 0L23.72 0L23.72-15L27.02-15ZM34.16 0.20L34.16 0.20Q31.73 0.20 30.22-1.25Q28.72-2.71 28.72-5.03L28.72-5.03L28.72-5.30Q28.72-6.92 29.32-8.16Q29.92-9.40 31.07-10.08Q32.23-10.76 33.81-10.76L33.81-10.76Q36.04-10.76 37.32-9.38Q38.61-8.00 38.61-5.53L38.61-5.53L38.61-4.25L32.07-4.25Q32.25-3.36 32.84-2.85Q33.44-2.34 34.38-2.34L34.38-2.34Q35.95-2.34 36.83-3.44L36.83-3.44L38.33-1.66Q37.71-0.81 36.59-0.31Q35.46 0.20 34.16 0.20ZM33.79-8.22L33.79-8.22Q32.34-8.22 32.07-6.31L32.07-6.31L35.39-6.31L35.39-6.56Q35.41-7.35 34.99-7.79Q34.57-8.22 33.79-8.22ZM49.80-2.54L49.80 0L39.88 0L39.88-2.15L44.45-6.95Q46.14-8.88 46.14-10.01L46.14-10.01Q46.14-10.93 45.74-11.41Q45.34-11.88 44.58-11.88L44.58-11.88Q43.83-11.88 43.36-11.25Q42.89-10.61 42.89-9.65L42.89-9.65L39.59-9.65Q39.59-10.96 40.24-12.07Q40.90-13.17 42.06-13.80Q43.22-14.42 44.66-14.42L44.66-14.42Q46.96-14.42 48.21-13.36Q49.45-12.29 49.45-10.30L49.45-10.30Q49.45-9.46 49.14-8.67Q48.83-7.87 48.17-7.00Q47.51-6.12 46.04-4.66L46.04-4.66L44.21-2.54L49.80-2.54Z"></path></g></g></svg>